<svg xmlns="http://www.w3.org/2000/svg" viewBox="0 0 48 48" width="48" height="48">
  <rect width="48" height="48" rx="6" fill="#ED8B00"/>
  <path d="M18 10c0 0-2 5 3 8s-1 6-1 6 7-2 4-7c-3-4 1-7 1-7s-7-2-7 0z" fill="#5382A1"/>
  <path d="M15 33s-1 1 2 1c3 1 7 1 11-1 0 0 1 1 2 1-5 2-12 2-15-1z" fill="#5382A1"/>
  <path d="M16 30s-2 1 2 1c4 1 8 1 13-1 0 0 1 1 1 1-6 2-14 2-16-1z" fill="#5382A1"/>
  <path d="M26 22c2-2 4-4 2-7 0 0 7 2 3 7-1 2-2 3-2 3l-3-3z" fill="#ED8B00"/>
  <path d="M33 36s1 1-1 2c-5 2-19 2-23 0-1-1 1-2 2-2l1-1c-3-1-11 2 0 4 14 3 27-1 21-3z" fill="#5382A1"/>
  <path d="M14 38s-4 1 2 1 16 0 19-1c0 0-2 1-4 1-7 1-18 1-17-1z" fill="#5382A1"/>
</svg>