<svg xmlns="http://www.w3.org/2000/svg" viewBox="0 0 48 48" width="48" height="48">
  <circle cx="24" cy="24" r="22" fill="#326CE5"/>
  <g fill="white" transform="translate(24,24)">
    <polygon points="0,-12 2,-4 -2,-4" />
    <polygon points="0,-12 2,-4 -2,-4" transform="rotate(60)"/>
    <polygon points="0,-12 2,-4 -2,-4" transform="rotate(120)"/>
    <polygon points="0,-12 2,-4 -2,-4" transform="rotate(180)"/>
    <polygon points="0,-12 2,-4 -2,-4" transform="rotate(240)"/>
    <polygon points="0,-12 2,-4 -2,-4" transform="rotate(300)"/>
    <circle r="5" fill="white"/>
    <circle r="3.5" fill="#326CE5"/>
    <polygon points="0,-2.5 1,-0.8 -1,-0.8" fill="white"/>
    <polygon points="0,-2.5 1,-0.8 -1,-0.8" fill="white" transform="rotate(60)"/>
    <polygon points="0,-2.5 1,-0.8 -1,-0.8" fill="white" transform="rotate(120)"/>
    <polygon points="0,-2.5 1,-0.8 -1,-0.8" fill="white" transform="rotate(180)"/>
    <polygon points="0,-2.5 1,-0.8 -1,-0.8" fill="white" transform="rotate(240)"/>
    <polygon points="0,-2.5 1,-0.8 -1,-0.8" fill="white" transform="rotate(300)"/>
  </g>
</svg>